<svg width="116" height="18" viewBox="0 0 116 18" fill="none" xmlns="http://www.w3.org/2000/svg">
<path d="M10.68 14.42C10.2533 14.7267 9.70667 14.9467 9.04 15.08C8.38667 15.2133 7.71333 15.28 7.02 15.28C6.18 15.28 5.38 15.1533 4.62 14.9C3.87333 14.6333 3.21333 14.2133 2.64 13.64C2.06667 13.0533 1.60667 12.3 1.26 11.38C0.926667 10.4467 0.76 9.32 0.76 8C0.76 6.62667 0.946667 5.48 1.32 4.56C1.70667 3.62667 2.2 2.88 2.8 2.32C3.41333 1.74667 4.09333 1.34 4.84 1.1C5.58667 0.846666 6.33333 0.719999 7.08 0.719999C7.88 0.719999 8.55333 0.773333 9.1 0.879999C9.66 0.986666 10.12 1.11333 10.48 1.26L9.94 3.58C9.63333 3.43333 9.26667 3.32667 8.84 3.26C8.42667 3.19333 7.92 3.16 7.32 3.16C6.21333 3.16 5.32 3.55333 4.64 4.34C3.97333 5.12667 3.64 6.34667 3.64 8C3.64 8.72 3.72 9.38 3.88 9.98C4.04 10.5667 4.28 11.0733 4.6 11.5C4.93333 11.9133 5.34 12.24 5.82 12.48C6.31333 12.7067 6.88 12.82 7.52 12.82C8.12 12.82 8.62667 12.76 9.04 12.64C9.45333 12.52 9.81333 12.3667 10.12 12.18L10.68 14.42ZM18.0861 7.3H15.2661V15H12.5861V7.3H9.76609V5H18.0861V7.3ZM18.6092 10C18.6092 8.30667 19.0226 7.00667 19.8492 6.1C20.6759 5.18 21.8359 4.72 23.3292 4.72C24.1292 4.72 24.8226 4.84667 25.4092 5.1C25.9959 5.35333 26.4826 5.71333 26.8692 6.18C27.2559 6.63333 27.5426 7.18667 27.7292 7.84C27.9292 8.49333 28.0292 9.21333 28.0292 10C28.0292 11.6933 27.6159 13 26.7892 13.92C25.9759 14.8267 24.8226 15.28 23.3292 15.28C22.5292 15.28 21.8359 15.1533 21.2492 14.9C20.6626 14.6467 20.1692 14.2933 19.7692 13.84C19.3826 13.3733 19.0892 12.8133 18.8892 12.16C18.7026 11.5067 18.6092 10.7867 18.6092 10ZM21.2892 10C21.2892 10.44 21.3292 10.8467 21.4092 11.22C21.4892 11.5933 21.6092 11.92 21.7692 12.2C21.9292 12.48 22.1359 12.7 22.3892 12.86C22.6559 13.0067 22.9692 13.08 23.3292 13.08C24.0092 13.08 24.5159 12.8333 24.8492 12.34C25.1826 11.8467 25.3492 11.0667 25.3492 10C25.3492 9.08 25.1959 8.34 24.8892 7.78C24.5826 7.20667 24.0626 6.92 23.3292 6.92C22.6892 6.92 22.1892 7.16 21.8292 7.64C21.4692 8.12 21.2892 8.90667 21.2892 10ZM35.8514 10.44L35.9514 9.02H35.8914L35.0314 10.48L31.4714 15H29.8314V5H32.4314V9.76L32.3114 11.12H32.3914L33.2114 9.7L36.8114 5H38.4514V15H35.8514V10.44ZM49.2898 10.42L49.4498 8.34H49.3498L48.5498 10.06L46.6698 13.16H45.7298L43.6698 10.06L42.9098 8.34H42.7898L43.0498 10.4V15H40.7298V5H43.4298L45.7298 8.76L46.2898 10.02H46.3698L46.9498 8.72L49.0698 5H51.7898V15H49.2898V10.42ZM53.5702 10C53.5702 8.30667 53.9835 7.00667 54.8102 6.1C55.6368 5.18 56.7968 4.72 58.2902 4.72C59.0902 4.72 59.7835 4.84667 60.3702 5.1C60.9568 5.35333 61.4435 5.71333 61.8302 6.18C62.2168 6.63333 62.5035 7.18667 62.6902 7.84C62.8902 8.49333 62.9902 9.21333 62.9902 10C62.9902 11.6933 62.5768 13 61.7502 13.92C60.9368 14.8267 59.7835 15.28 58.2902 15.28C57.4902 15.28 56.7968 15.1533 56.2102 14.9C55.6235 14.6467 55.1302 14.2933 54.7302 13.84C54.3435 13.3733 54.0502 12.8133 53.8502 12.16C53.6635 11.5067 53.5702 10.7867 53.5702 10ZM56.2502 10C56.2502 10.44 56.2902 10.8467 56.3702 11.22C56.4502 11.5933 56.5702 11.92 56.7302 12.2C56.8902 12.48 57.0968 12.7 57.3502 12.86C57.6168 13.0067 57.9302 13.08 58.2902 13.08C58.9702 13.08 59.4768 12.8333 59.8102 12.34C60.1435 11.8467 60.3102 11.0667 60.3102 10C60.3102 9.08 60.1568 8.34 59.8502 7.78C59.5435 7.20667 59.0235 6.92 58.2902 6.92C57.6502 6.92 57.1502 7.16 56.7902 7.64C56.4302 8.12 56.2502 8.90667 56.2502 10ZM71.8723 14.38C71.4723 14.6733 70.9857 14.8933 70.4123 15.04C69.8523 15.2 69.2723 15.28 68.6723 15.28C67.8723 15.28 67.1923 15.1533 66.6323 14.9C66.0857 14.6467 65.639 14.2933 65.2923 13.84C64.9457 13.3733 64.6923 12.8133 64.5323 12.16C64.3857 11.5067 64.3123 10.7867 64.3123 10C64.3123 8.30667 64.6923 7.00667 65.4523 6.1C66.2123 5.18 67.319 4.72 68.7723 4.72C69.5057 4.72 70.0923 4.78 70.5323 4.9C70.9857 5.02 71.3923 5.17333 71.7523 5.36L71.1323 7.48C70.8257 7.33333 70.519 7.22 70.2123 7.14C69.919 7.06 69.579 7.02 69.1923 7.02C68.4723 7.02 67.9257 7.26 67.5523 7.74C67.179 8.20667 66.9923 8.96 66.9923 10C66.9923 10.4267 67.039 10.82 67.1323 11.18C67.2257 11.54 67.3657 11.8533 67.5523 12.12C67.739 12.3867 67.979 12.6 68.2723 12.76C68.579 12.9067 68.9323 12.98 69.3323 12.98C69.7723 12.98 70.1457 12.9267 70.4523 12.82C70.759 12.7 71.0323 12.56 71.2723 12.4L71.8723 14.38ZM80.547 7.3H77.727V15H75.047V7.3H72.227V5H80.547V7.3ZM84.3064 12.82C84.7064 12.9 85.0864 12.94 85.4464 12.94C86.0864 12.94 86.5464 12.8333 86.8264 12.62C87.1197 12.3933 87.2664 12.0467 87.2664 11.58C87.2664 10.7133 86.6797 10.28 85.5064 10.28C85.0664 10.28 84.6664 10.3267 84.3064 10.42V12.82ZM84.3064 8.56C84.6264 8.50667 84.9464 8.47333 85.2664 8.46C85.5997 8.43333 85.8997 8.42 86.1664 8.42C86.8597 8.42 87.4464 8.5 87.9264 8.66C88.4064 8.80667 88.7931 9.02 89.0864 9.3C89.3931 9.58 89.6131 9.91333 89.7464 10.3C89.8797 10.6733 89.9464 11.08 89.9464 11.52C89.9464 12.7333 89.5864 13.64 88.8664 14.24C88.1464 14.84 86.9264 15.14 85.2064 15.14C84.4464 15.14 83.7864 15.1267 83.2264 15.1C82.6797 15.0733 82.1731 15.04 81.7064 15V5H84.3064V8.56ZM91.2111 13.72C91.2111 13.2667 91.3578 12.9067 91.6511 12.64C91.9578 12.3733 92.3311 12.24 92.7711 12.24C93.3311 12.24 93.7711 12.4267 94.0911 12.8C94.4111 13.1733 94.5711 13.6667 94.5711 14.28C94.5711 14.88 94.4778 15.3933 94.2911 15.82C94.1044 16.26 93.8711 16.62 93.5911 16.9C93.3244 17.1933 93.0311 17.42 92.7111 17.58C92.4044 17.7533 92.1244 17.88 91.8711 17.96L91.1111 16.88C91.4711 16.7333 91.7844 16.4933 92.0511 16.16C92.3178 15.8267 92.4644 15.4733 92.4911 15.1C92.1844 15.14 91.8911 15.0467 91.6111 14.82C91.3444 14.5933 91.2111 14.2267 91.2111 13.72ZM99.542 7.72H101.122V1.14C101.682 1.03333 102.262 0.953333 102.862 0.899999C103.462 0.833333 104.095 0.799999 104.762 0.799999C105.455 0.799999 106.122 0.859999 106.762 0.979999C107.402 1.1 107.962 1.32 108.442 1.64C108.922 1.96 109.302 2.4 109.582 2.96C109.875 3.52 110.022 4.24 110.022 5.12C110.022 5.93333 109.882 6.62 109.602 7.18C109.322 7.74 108.949 8.2 108.482 8.56C108.015 8.90667 107.482 9.16 106.882 9.32C106.282 9.46667 105.655 9.54 105.002 9.54H103.642V10.7H106.842V12.52H103.642V15H101.122V12.52H99.542V10.7H101.122V9.54H99.542V7.72ZM103.642 7.66H104.682C105.042 7.66 105.382 7.62 105.702 7.54C106.035 7.44667 106.322 7.30667 106.562 7.12C106.802 6.93333 106.989 6.68667 107.122 6.38C107.269 6.06 107.342 5.68 107.342 5.24C107.342 4.42667 107.122 3.85333 106.682 3.52C106.242 3.17333 105.675 3 104.982 3C104.715 3 104.462 3.01333 104.222 3.04C103.982 3.05333 103.789 3.07333 103.642 3.1V7.66ZM112.29 6.44C112.29 5.97333 112.436 5.60667 112.73 5.34C113.023 5.06 113.41 4.92 113.89 4.92C114.396 4.92 114.796 5.06 115.09 5.34C115.383 5.60667 115.53 5.97333 115.53 6.44C115.53 6.90667 115.383 7.28 115.09 7.56C114.796 7.84 114.396 7.98 113.89 7.98C113.41 7.98 113.023 7.84 112.73 7.56C112.436 7.28 112.29 6.90667 112.29 6.44ZM112.29 13.68C112.29 13.2133 112.436 12.8467 112.73 12.58C113.023 12.3 113.41 12.16 113.89 12.16C114.396 12.16 114.796 12.3 115.09 12.58C115.383 12.8467 115.53 13.2133 115.53 13.68C115.53 14.1467 115.383 14.52 115.09 14.8C114.796 15.08 114.396 15.22 113.89 15.22C113.41 15.22 113.023 15.08 112.73 14.8C112.436 14.52 112.29 14.1467 112.29 13.68Z" fill="white"/>
</svg>
